<svg width="225" height="63" viewBox="0 0 225 63" fill="none" xmlns="http://www.w3.org/2000/svg">
<g filter="url(#filter0_d_2311_6)">
<mask id="path-1-outside-1_2311_6" maskUnits="userSpaceOnUse" x="3" y="-1" width="219" height="57" fill="black">
<rect fill="white" x="3" y="-1" width="219" height="57"/>
<path d="M38.08 54C35.392 54 33.472 53.472 32.32 52.416C31.168 51.36 30.592 49.848 30.592 47.88C30.592 46.824 30.688 44.952 30.88 42.264C31.072 39.576 31.288 36.552 31.528 33.192H18.712L17.272 52.92C17.224 53.304 17.128 53.592 16.984 53.784C16.84 53.928 16.552 54 16.12 54H12.16C9.472 54 7.552 53.472 6.4 52.416C5.248 51.36 4.672 49.848 4.672 47.88C4.672 46.92 4.744 45.288 4.888 42.984C5.032 40.632 5.224 37.968 5.464 34.992C5.704 32.016 5.944 28.872 6.184 25.56C6.424 22.248 6.664 19.128 6.904 16.2C7.144 13.272 7.336 10.704 7.48 8.496C7.624 6.288 7.696 4.776 7.696 3.96C7.696 3.24 8.08 2.88 8.848 2.88H12.808C15.736 2.88 17.704 3.504 18.712 4.752C19.72 6 20.224 7.848 20.224 10.296C20.224 10.68 20.152 12.048 20.008 14.4C19.864 16.704 19.672 19.488 19.432 22.752H32.32C32.464 20.64 32.608 18.576 32.752 16.56C32.944 14.544 33.088 12.696 33.184 11.016C33.328 9.336 33.424 7.896 33.472 6.696C33.568 5.448 33.616 4.536 33.616 3.96C33.616 3.24 34 2.88 34.768 2.88H38.728C41.656 2.88 43.624 3.504 44.632 4.752C45.64 6 46.144 7.848 46.144 10.296C46.144 10.536 46.096 11.304 46 12.6C45.952 13.896 45.856 15.528 45.712 17.496C45.568 19.464 45.4 21.672 45.208 24.12C45.064 26.52 44.896 28.992 44.704 31.536C44.56 34.08 44.392 36.576 44.2 39.024C44.056 41.424 43.912 43.608 43.768 45.576C43.624 47.544 43.504 49.2 43.408 50.544C43.312 51.84 43.24 52.632 43.192 52.92C43.144 53.304 43.048 53.592 42.904 53.784C42.76 53.928 42.472 54 42.04 54H38.08ZM49.0836 45.144C49.0836 40.824 51.0276 37.44 54.9156 34.992C58.8036 32.544 64.5396 31.224 72.1236 31.032C72.1716 30.504 72.1956 30.072 72.1956 29.736C72.2436 29.352 72.2676 28.896 72.2676 28.368C72.2676 26.832 71.9796 25.608 71.4036 24.696C70.8276 23.784 69.6276 23.328 67.8036 23.328C66.7956 23.328 65.9796 23.472 65.3556 23.76C64.7316 24.048 64.2276 24.456 63.8436 24.984C63.4596 25.464 63.1476 26.064 62.9076 26.784C62.6676 27.504 62.4516 28.296 62.2596 29.16C62.1636 29.592 61.9476 29.88 61.6116 30.024C61.2756 30.12 60.7476 30.168 60.0276 30.168C55.1316 30.168 52.6836 28.32 52.6836 24.624C52.6836 23.136 53.0196 21.72 53.6916 20.376C54.4116 19.032 55.4436 17.88 56.7876 16.92C58.1796 15.912 59.9076 15.12 61.9716 14.544C64.0356 13.968 66.4356 13.68 69.1716 13.68C74.4996 13.68 78.3636 14.784 80.7636 16.992C83.1636 19.2 84.3636 22.32 84.3636 26.352C84.3636 26.88 84.2916 27.84 84.1476 29.232C84.0516 30.576 83.9076 32.016 83.7156 33.552C83.5716 35.04 83.4276 36.456 83.2836 37.8C83.1876 39.144 83.1396 40.08 83.1396 40.608C83.1396 41.808 83.3556 42.672 83.7876 43.2C84.2196 43.68 84.6996 44.016 85.2276 44.208C85.8036 44.4 86.3076 44.544 86.7396 44.64C87.1716 44.736 87.3876 44.976 87.3876 45.36C87.3876 46.416 87.2436 47.496 86.9556 48.6C86.6676 49.704 86.1876 50.712 85.5156 51.624C84.8916 52.536 84.0036 53.28 82.8516 53.856C81.7476 54.432 80.3796 54.72 78.7476 54.72C76.4436 54.72 74.7156 54.168 73.5636 53.064C72.4116 51.96 71.6436 50.424 71.2596 48.456C70.1076 50.136 68.5956 51.6 66.7236 52.848C64.8996 54.096 62.4996 54.72 59.5236 54.72C58.0836 54.72 56.7156 54.552 55.4196 54.216C54.1716 53.88 53.0676 53.328 52.1076 52.56C51.1956 51.792 50.4516 50.808 49.8756 49.608C49.3476 48.36 49.0836 46.872 49.0836 45.144ZM71.4756 36.936C70.2276 36.936 69.0036 37.032 67.8036 37.224C66.6036 37.416 65.5236 37.728 64.5636 38.16C63.6516 38.544 62.9076 39.072 62.3316 39.744C61.7556 40.416 61.4676 41.232 61.4676 42.192C61.4676 43.296 61.8036 44.064 62.4756 44.496C63.1956 44.928 63.9636 45.144 64.7796 45.144C65.5476 45.144 66.3156 44.976 67.0836 44.64C67.8516 44.304 68.5236 43.8 69.0996 43.128C69.7236 42.408 70.2516 41.544 70.6836 40.536C71.1156 39.528 71.3796 38.328 71.4756 36.936ZM128.83 46.296C129.454 42.792 129.982 39.744 130.414 37.152C130.894 34.512 131.278 32.232 131.566 30.312C131.902 28.392 132.166 26.736 132.358 25.344C132.598 23.952 132.79 22.728 132.934 21.672C133.126 20.568 133.27 19.608 133.366 18.792C133.51 17.928 133.654 17.04 133.798 16.128C133.894 15.6 134.134 15.192 134.518 14.904C134.95 14.616 135.742 14.472 136.894 14.472C137.518 14.472 138.382 14.52 139.486 14.616C140.638 14.664 141.766 14.832 142.87 15.12C143.974 15.408 144.91 15.864 145.678 16.488C146.494 17.064 146.902 17.88 146.902 18.936C146.902 19.704 146.686 20.856 146.254 22.392C145.822 23.88 145.27 25.608 144.598 27.576C143.926 29.544 143.158 31.656 142.294 33.912C141.43 36.12 140.542 38.328 139.63 40.536C138.766 42.696 137.926 44.76 137.11 46.728C136.294 48.696 135.598 50.4 135.022 51.84C134.638 52.704 134.254 53.28 133.87 53.568C133.534 53.856 132.91 54 131.998 54H127.75C126.406 54 125.302 53.832 124.438 53.496C123.574 53.16 122.878 52.704 122.35 52.128C121.822 51.552 121.414 50.904 121.126 50.184C120.838 49.416 120.622 48.6 120.478 47.736C119.998 45.288 119.494 42 118.966 37.872C118.438 33.744 117.958 28.872 117.526 23.256C117.286 24.312 116.998 25.728 116.662 27.504C116.374 29.28 116.038 31.2 115.654 33.264C115.318 35.328 114.958 37.44 114.574 39.6C114.19 41.76 113.83 43.776 113.494 45.648C113.158 47.472 112.846 49.056 112.558 50.4C112.27 51.696 112.03 52.536 111.838 52.92C111.598 53.4 111.286 53.712 110.902 53.856C110.566 53.952 110.062 54 109.39 54H104.35C103.102 54 102.022 53.832 101.11 53.496C100.246 53.112 99.4784 52.632 98.8064 52.056C98.1824 51.48 97.6544 50.832 97.2224 50.112C96.8384 49.344 96.5504 48.552 96.3584 47.736C93.7184 37.464 91.7264 29.712 90.3824 24.48C89.0864 19.248 88.4384 16.44 88.4384 16.056C88.4384 15.624 88.6544 15.24 89.0864 14.904C89.5184 14.568 90.0704 14.4 90.7424 14.4C92.8064 14.4 94.5824 14.496 96.0704 14.688C97.5584 14.832 98.7824 15.12 99.7424 15.552C100.75 15.984 101.518 16.584 102.046 17.352C102.574 18.12 102.91 19.128 103.054 20.376C103.102 21.048 103.198 22.416 103.342 24.48C103.486 26.544 103.63 28.896 103.774 31.536C103.966 34.128 104.134 36.768 104.278 39.456C104.47 42.144 104.638 44.424 104.782 46.296C105.358 43.32 105.814 40.944 106.15 39.168C106.534 37.392 106.846 35.904 107.086 34.704C107.326 33.504 107.518 32.448 107.662 31.536C107.854 30.624 108.07 29.544 108.31 28.296C108.55 27.048 108.814 25.488 109.102 23.616C109.438 21.744 109.894 19.248 110.47 16.128C110.662 14.976 111.934 14.4 114.286 14.4C115.774 14.4 117.166 14.448 118.462 14.544C119.758 14.64 120.91 14.88 121.918 15.264C122.926 15.6 123.79 16.128 124.51 16.848C125.23 17.52 125.734 18.456 126.022 19.656C126.118 19.992 126.19 20.328 126.238 20.664C126.334 21 126.43 21.48 126.526 22.104C126.622 22.728 126.718 23.592 126.814 24.696C126.958 25.8 127.102 27.288 127.246 29.16C127.438 31.032 127.654 33.36 127.894 36.144C128.134 38.928 128.446 42.312 128.83 46.296ZM183.613 48.168C183.613 48.408 183.493 48.888 183.253 49.608C183.013 50.328 182.629 51.072 182.101 51.84C181.573 52.608 180.901 53.28 180.085 53.856C179.317 54.432 178.381 54.72 177.277 54.72C175.981 54.72 174.685 54.288 173.389 53.424C172.141 52.56 170.893 51.384 169.645 49.896C168.397 48.408 167.125 46.656 165.829 44.64C164.581 42.576 163.309 40.344 162.013 37.944C161.821 40.488 161.629 42.984 161.437 45.432C161.245 47.88 161.053 50.256 160.861 52.56C160.813 53.136 160.693 53.52 160.501 53.712C160.309 53.904 159.901 54 159.277 54H156.685C155.197 54 153.973 53.856 153.013 53.568C152.053 53.232 151.309 52.776 150.781 52.2C150.253 51.624 149.869 50.904 149.629 50.04C149.437 49.128 149.341 48.096 149.341 46.944C149.341 46.368 149.365 45.768 149.413 45.144C149.461 44.52 149.533 43.632 149.629 42.48C149.725 41.328 149.845 39.816 149.989 37.944C150.181 36.072 150.397 33.6 150.637 30.528C150.877 27.456 151.141 23.688 151.429 19.224C151.765 14.712 152.125 9.24 152.509 2.808C152.557 1.752 152.677 1.128 152.869 0.935997C153.013 0.791998 153.397 0.719999 154.021 0.719999H156.829C158.317 0.719999 159.541 0.887999 160.501 1.224C161.461 1.56 162.229 2.016 162.805 2.592C163.381 3.168 163.765 3.84 163.957 4.608C164.197 5.376 164.317 6.168 164.317 6.984C164.317 7.464 164.269 8.28 164.173 9.432C164.125 10.536 164.053 11.904 163.957 13.536C163.861 15.12 163.717 16.92 163.525 18.936C163.381 20.952 163.237 23.064 163.093 25.272L174.613 14.76C175.045 14.376 175.429 14.112 175.765 13.968C176.149 13.824 176.437 13.752 176.629 13.752C177.157 13.752 177.733 14.088 178.357 14.76C178.981 15.432 179.557 16.224 180.085 17.136C180.661 18 181.117 18.912 181.453 19.872C181.837 20.784 182.029 21.528 182.029 22.104C182.029 23.496 180.901 24.96 178.645 26.496C176.437 28.032 173.077 29.76 168.565 31.68C170.581 33.936 172.501 36 174.325 37.872C176.149 39.744 177.733 41.4 179.077 42.84C180.469 44.28 181.573 45.456 182.389 46.368C183.205 47.28 183.613 47.88 183.613 48.168ZM202.719 54.72C200.607 54.72 198.495 54.456 196.383 53.928C194.319 53.4 192.447 52.488 190.767 51.192C189.135 49.896 187.791 48.168 186.735 46.008C185.679 43.848 185.151 41.136 185.151 37.872C185.151 36.672 185.247 35.232 185.439 33.552C185.631 31.872 185.991 30.144 186.519 28.368C187.095 26.592 187.863 24.84 188.823 23.112C189.831 21.336 191.127 19.752 192.711 18.36C194.295 16.968 196.215 15.84 198.471 14.976C200.727 14.112 203.415 13.68 206.535 13.68C209.031 13.68 211.143 13.968 212.871 14.544C214.599 15.12 215.991 15.912 217.047 16.92C218.103 17.88 218.871 19.008 219.351 20.304C219.831 21.6 220.071 22.992 220.071 24.48C220.071 26.688 219.615 28.56 218.703 30.096C217.839 31.632 216.687 32.928 215.247 33.984C213.855 34.992 212.295 35.784 210.567 36.36C208.839 36.936 207.135 37.392 205.455 37.728C203.775 38.016 202.215 38.208 200.775 38.304C199.383 38.352 198.303 38.376 197.535 38.376C197.535 39.288 197.655 40.2 197.895 41.112C198.183 41.976 198.591 42.744 199.119 43.416C199.647 44.088 200.343 44.64 201.207 45.072C202.071 45.504 203.127 45.72 204.375 45.72C205.623 45.72 206.583 45.528 207.255 45.144C207.975 44.712 208.551 44.256 208.983 43.776C209.415 43.248 209.775 42.792 210.063 42.408C210.399 41.976 210.831 41.76 211.359 41.76C211.599 41.76 212.007 41.832 212.583 41.976C213.207 42.072 213.831 42.312 214.455 42.696C215.079 43.08 215.631 43.608 216.111 44.28C216.591 44.952 216.831 45.816 216.831 46.872C216.831 48.264 216.399 49.464 215.535 50.472C214.671 51.48 213.543 52.296 212.151 52.92C210.807 53.544 209.295 54 207.615 54.288C205.935 54.576 204.303 54.72 202.719 54.72ZM204.087 23.256C203.031 23.256 202.119 23.568 201.351 24.192C200.631 24.768 200.007 25.512 199.479 26.424C198.999 27.336 198.615 28.344 198.327 29.448C198.087 30.552 197.895 31.608 197.751 32.616C200.727 32.568 203.127 32.064 204.951 31.104C206.823 30.144 207.759 28.776 207.759 27C207.759 26.04 207.447 25.176 206.823 24.408C206.247 23.64 205.335 23.256 204.087 23.256Z"/>
</mask>
<path d="M38.08 54C35.392 54 33.472 53.472 32.32 52.416C31.168 51.36 30.592 49.848 30.592 47.88C30.592 46.824 30.688 44.952 30.88 42.264C31.072 39.576 31.288 36.552 31.528 33.192H18.712L17.272 52.92C17.224 53.304 17.128 53.592 16.984 53.784C16.84 53.928 16.552 54 16.12 54H12.16C9.472 54 7.552 53.472 6.4 52.416C5.248 51.36 4.672 49.848 4.672 47.88C4.672 46.92 4.744 45.288 4.888 42.984C5.032 40.632 5.224 37.968 5.464 34.992C5.704 32.016 5.944 28.872 6.184 25.56C6.424 22.248 6.664 19.128 6.904 16.2C7.144 13.272 7.336 10.704 7.48 8.496C7.624 6.288 7.696 4.776 7.696 3.96C7.696 3.24 8.08 2.88 8.848 2.88H12.808C15.736 2.88 17.704 3.504 18.712 4.752C19.72 6 20.224 7.848 20.224 10.296C20.224 10.68 20.152 12.048 20.008 14.4C19.864 16.704 19.672 19.488 19.432 22.752H32.32C32.464 20.64 32.608 18.576 32.752 16.56C32.944 14.544 33.088 12.696 33.184 11.016C33.328 9.336 33.424 7.896 33.472 6.696C33.568 5.448 33.616 4.536 33.616 3.96C33.616 3.24 34 2.88 34.768 2.88H38.728C41.656 2.88 43.624 3.504 44.632 4.752C45.64 6 46.144 7.848 46.144 10.296C46.144 10.536 46.096 11.304 46 12.6C45.952 13.896 45.856 15.528 45.712 17.496C45.568 19.464 45.4 21.672 45.208 24.12C45.064 26.52 44.896 28.992 44.704 31.536C44.56 34.08 44.392 36.576 44.2 39.024C44.056 41.424 43.912 43.608 43.768 45.576C43.624 47.544 43.504 49.2 43.408 50.544C43.312 51.84 43.24 52.632 43.192 52.92C43.144 53.304 43.048 53.592 42.904 53.784C42.76 53.928 42.472 54 42.04 54H38.08ZM49.0836 45.144C49.0836 40.824 51.0276 37.44 54.9156 34.992C58.8036 32.544 64.5396 31.224 72.1236 31.032C72.1716 30.504 72.1956 30.072 72.1956 29.736C72.2436 29.352 72.2676 28.896 72.2676 28.368C72.2676 26.832 71.9796 25.608 71.4036 24.696C70.8276 23.784 69.6276 23.328 67.8036 23.328C66.7956 23.328 65.9796 23.472 65.3556 23.76C64.7316 24.048 64.2276 24.456 63.8436 24.984C63.4596 25.464 63.1476 26.064 62.9076 26.784C62.6676 27.504 62.4516 28.296 62.2596 29.16C62.1636 29.592 61.9476 29.88 61.6116 30.024C61.2756 30.12 60.7476 30.168 60.0276 30.168C55.1316 30.168 52.6836 28.32 52.6836 24.624C52.6836 23.136 53.0196 21.72 53.6916 20.376C54.4116 19.032 55.4436 17.88 56.7876 16.92C58.1796 15.912 59.9076 15.12 61.9716 14.544C64.0356 13.968 66.4356 13.68 69.1716 13.68C74.4996 13.68 78.3636 14.784 80.7636 16.992C83.1636 19.2 84.3636 22.32 84.3636 26.352C84.3636 26.88 84.2916 27.84 84.1476 29.232C84.0516 30.576 83.9076 32.016 83.7156 33.552C83.5716 35.04 83.4276 36.456 83.2836 37.8C83.1876 39.144 83.1396 40.08 83.1396 40.608C83.1396 41.808 83.3556 42.672 83.7876 43.2C84.2196 43.68 84.6996 44.016 85.2276 44.208C85.8036 44.4 86.3076 44.544 86.7396 44.64C87.1716 44.736 87.3876 44.976 87.3876 45.36C87.3876 46.416 87.2436 47.496 86.9556 48.6C86.6676 49.704 86.1876 50.712 85.5156 51.624C84.8916 52.536 84.0036 53.28 82.8516 53.856C81.7476 54.432 80.3796 54.72 78.7476 54.72C76.4436 54.72 74.7156 54.168 73.5636 53.064C72.4116 51.96 71.6436 50.424 71.2596 48.456C70.1076 50.136 68.5956 51.6 66.7236 52.848C64.8996 54.096 62.4996 54.72 59.5236 54.72C58.0836 54.72 56.7156 54.552 55.4196 54.216C54.1716 53.88 53.0676 53.328 52.1076 52.56C51.1956 51.792 50.4516 50.808 49.8756 49.608C49.3476 48.36 49.0836 46.872 49.0836 45.144ZM71.4756 36.936C70.2276 36.936 69.0036 37.032 67.8036 37.224C66.6036 37.416 65.5236 37.728 64.5636 38.16C63.6516 38.544 62.9076 39.072 62.3316 39.744C61.7556 40.416 61.4676 41.232 61.4676 42.192C61.4676 43.296 61.8036 44.064 62.4756 44.496C63.1956 44.928 63.9636 45.144 64.7796 45.144C65.5476 45.144 66.3156 44.976 67.0836 44.64C67.8516 44.304 68.5236 43.8 69.0996 43.128C69.7236 42.408 70.2516 41.544 70.6836 40.536C71.1156 39.528 71.3796 38.328 71.4756 36.936ZM128.83 46.296C129.454 42.792 129.982 39.744 130.414 37.152C130.894 34.512 131.278 32.232 131.566 30.312C131.902 28.392 132.166 26.736 132.358 25.344C132.598 23.952 132.79 22.728 132.934 21.672C133.126 20.568 133.27 19.608 133.366 18.792C133.51 17.928 133.654 17.04 133.798 16.128C133.894 15.6 134.134 15.192 134.518 14.904C134.95 14.616 135.742 14.472 136.894 14.472C137.518 14.472 138.382 14.52 139.486 14.616C140.638 14.664 141.766 14.832 142.87 15.12C143.974 15.408 144.91 15.864 145.678 16.488C146.494 17.064 146.902 17.88 146.902 18.936C146.902 19.704 146.686 20.856 146.254 22.392C145.822 23.88 145.27 25.608 144.598 27.576C143.926 29.544 143.158 31.656 142.294 33.912C141.43 36.12 140.542 38.328 139.63 40.536C138.766 42.696 137.926 44.76 137.11 46.728C136.294 48.696 135.598 50.4 135.022 51.84C134.638 52.704 134.254 53.28 133.87 53.568C133.534 53.856 132.91 54 131.998 54H127.75C126.406 54 125.302 53.832 124.438 53.496C123.574 53.16 122.878 52.704 122.35 52.128C121.822 51.552 121.414 50.904 121.126 50.184C120.838 49.416 120.622 48.6 120.478 47.736C119.998 45.288 119.494 42 118.966 37.872C118.438 33.744 117.958 28.872 117.526 23.256C117.286 24.312 116.998 25.728 116.662 27.504C116.374 29.28 116.038 31.2 115.654 33.264C115.318 35.328 114.958 37.44 114.574 39.6C114.19 41.76 113.83 43.776 113.494 45.648C113.158 47.472 112.846 49.056 112.558 50.4C112.27 51.696 112.03 52.536 111.838 52.92C111.598 53.4 111.286 53.712 110.902 53.856C110.566 53.952 110.062 54 109.39 54H104.35C103.102 54 102.022 53.832 101.11 53.496C100.246 53.112 99.4784 52.632 98.8064 52.056C98.1824 51.48 97.6544 50.832 97.2224 50.112C96.8384 49.344 96.5504 48.552 96.3584 47.736C93.7184 37.464 91.7264 29.712 90.3824 24.48C89.0864 19.248 88.4384 16.44 88.4384 16.056C88.4384 15.624 88.6544 15.24 89.0864 14.904C89.5184 14.568 90.0704 14.4 90.7424 14.4C92.8064 14.4 94.5824 14.496 96.0704 14.688C97.5584 14.832 98.7824 15.12 99.7424 15.552C100.75 15.984 101.518 16.584 102.046 17.352C102.574 18.12 102.91 19.128 103.054 20.376C103.102 21.048 103.198 22.416 103.342 24.48C103.486 26.544 103.63 28.896 103.774 31.536C103.966 34.128 104.134 36.768 104.278 39.456C104.47 42.144 104.638 44.424 104.782 46.296C105.358 43.32 105.814 40.944 106.15 39.168C106.534 37.392 106.846 35.904 107.086 34.704C107.326 33.504 107.518 32.448 107.662 31.536C107.854 30.624 108.07 29.544 108.31 28.296C108.55 27.048 108.814 25.488 109.102 23.616C109.438 21.744 109.894 19.248 110.47 16.128C110.662 14.976 111.934 14.4 114.286 14.4C115.774 14.4 117.166 14.448 118.462 14.544C119.758 14.64 120.91 14.88 121.918 15.264C122.926 15.6 123.79 16.128 124.51 16.848C125.23 17.52 125.734 18.456 126.022 19.656C126.118 19.992 126.19 20.328 126.238 20.664C126.334 21 126.43 21.48 126.526 22.104C126.622 22.728 126.718 23.592 126.814 24.696C126.958 25.8 127.102 27.288 127.246 29.16C127.438 31.032 127.654 33.36 127.894 36.144C128.134 38.928 128.446 42.312 128.83 46.296ZM183.613 48.168C183.613 48.408 183.493 48.888 183.253 49.608C183.013 50.328 182.629 51.072 182.101 51.84C181.573 52.608 180.901 53.28 180.085 53.856C179.317 54.432 178.381 54.72 177.277 54.72C175.981 54.72 174.685 54.288 173.389 53.424C172.141 52.56 170.893 51.384 169.645 49.896C168.397 48.408 167.125 46.656 165.829 44.64C164.581 42.576 163.309 40.344 162.013 37.944C161.821 40.488 161.629 42.984 161.437 45.432C161.245 47.88 161.053 50.256 160.861 52.56C160.813 53.136 160.693 53.52 160.501 53.712C160.309 53.904 159.901 54 159.277 54H156.685C155.197 54 153.973 53.856 153.013 53.568C152.053 53.232 151.309 52.776 150.781 52.2C150.253 51.624 149.869 50.904 149.629 50.04C149.437 49.128 149.341 48.096 149.341 46.944C149.341 46.368 149.365 45.768 149.413 45.144C149.461 44.52 149.533 43.632 149.629 42.48C149.725 41.328 149.845 39.816 149.989 37.944C150.181 36.072 150.397 33.6 150.637 30.528C150.877 27.456 151.141 23.688 151.429 19.224C151.765 14.712 152.125 9.24 152.509 2.808C152.557 1.752 152.677 1.128 152.869 0.935997C153.013 0.791998 153.397 0.719999 154.021 0.719999H156.829C158.317 0.719999 159.541 0.887999 160.501 1.224C161.461 1.56 162.229 2.016 162.805 2.592C163.381 3.168 163.765 3.84 163.957 4.608C164.197 5.376 164.317 6.168 164.317 6.984C164.317 7.464 164.269 8.28 164.173 9.432C164.125 10.536 164.053 11.904 163.957 13.536C163.861 15.12 163.717 16.92 163.525 18.936C163.381 20.952 163.237 23.064 163.093 25.272L174.613 14.76C175.045 14.376 175.429 14.112 175.765 13.968C176.149 13.824 176.437 13.752 176.629 13.752C177.157 13.752 177.733 14.088 178.357 14.76C178.981 15.432 179.557 16.224 180.085 17.136C180.661 18 181.117 18.912 181.453 19.872C181.837 20.784 182.029 21.528 182.029 22.104C182.029 23.496 180.901 24.96 178.645 26.496C176.437 28.032 173.077 29.76 168.565 31.68C170.581 33.936 172.501 36 174.325 37.872C176.149 39.744 177.733 41.4 179.077 42.84C180.469 44.28 181.573 45.456 182.389 46.368C183.205 47.28 183.613 47.88 183.613 48.168ZM202.719 54.72C200.607 54.72 198.495 54.456 196.383 53.928C194.319 53.4 192.447 52.488 190.767 51.192C189.135 49.896 187.791 48.168 186.735 46.008C185.679 43.848 185.151 41.136 185.151 37.872C185.151 36.672 185.247 35.232 185.439 33.552C185.631 31.872 185.991 30.144 186.519 28.368C187.095 26.592 187.863 24.84 188.823 23.112C189.831 21.336 191.127 19.752 192.711 18.36C194.295 16.968 196.215 15.84 198.471 14.976C200.727 14.112 203.415 13.68 206.535 13.68C209.031 13.68 211.143 13.968 212.871 14.544C214.599 15.12 215.991 15.912 217.047 16.92C218.103 17.88 218.871 19.008 219.351 20.304C219.831 21.6 220.071 22.992 220.071 24.48C220.071 26.688 219.615 28.56 218.703 30.096C217.839 31.632 216.687 32.928 215.247 33.984C213.855 34.992 212.295 35.784 210.567 36.36C208.839 36.936 207.135 37.392 205.455 37.728C203.775 38.016 202.215 38.208 200.775 38.304C199.383 38.352 198.303 38.376 197.535 38.376C197.535 39.288 197.655 40.2 197.895 41.112C198.183 41.976 198.591 42.744 199.119 43.416C199.647 44.088 200.343 44.64 201.207 45.072C202.071 45.504 203.127 45.72 204.375 45.72C205.623 45.72 206.583 45.528 207.255 45.144C207.975 44.712 208.551 44.256 208.983 43.776C209.415 43.248 209.775 42.792 210.063 42.408C210.399 41.976 210.831 41.76 211.359 41.76C211.599 41.76 212.007 41.832 212.583 41.976C213.207 42.072 213.831 42.312 214.455 42.696C215.079 43.08 215.631 43.608 216.111 44.28C216.591 44.952 216.831 45.816 216.831 46.872C216.831 48.264 216.399 49.464 215.535 50.472C214.671 51.48 213.543 52.296 212.151 52.92C210.807 53.544 209.295 54 207.615 54.288C205.935 54.576 204.303 54.72 202.719 54.72ZM204.087 23.256C203.031 23.256 202.119 23.568 201.351 24.192C200.631 24.768 200.007 25.512 199.479 26.424C198.999 27.336 198.615 28.344 198.327 29.448C198.087 30.552 197.895 31.608 197.751 32.616C200.727 32.568 203.127 32.064 204.951 31.104C206.823 30.144 207.759 28.776 207.759 27C207.759 26.04 207.447 25.176 206.823 24.408C206.247 23.64 205.335 23.256 204.087 23.256Z" fill="white"/>
<path d="M32.32 52.416L32.9957 51.6788L32.9957 51.6788L32.32 52.416ZM30.88 42.264L31.8775 42.3352L30.88 42.264ZM31.528 33.192L32.5255 33.2632L32.602 32.192H31.528V33.192ZM18.712 33.192V32.192H17.7823L17.7147 33.1192L18.712 33.192ZM17.272 52.92L18.2643 53.044L18.2675 53.0185L18.2693 52.9928L17.272 52.92ZM16.984 53.784L17.6911 54.4911L17.7414 54.4409L17.784 54.384L16.984 53.784ZM6.4 52.416L5.72428 53.1532L5.72428 53.1532L6.4 52.416ZM4.888 42.984L5.88605 43.0464L5.88613 43.0451L4.888 42.984ZM5.464 34.992L6.46076 35.0724L5.464 34.992ZM6.904 16.2L5.90734 16.1183L5.90734 16.1183L6.904 16.2ZM18.712 4.752L17.9341 5.38034L17.9341 5.38034L18.712 4.752ZM20.008 14.4L21.0061 14.4624L21.0061 14.4611L20.008 14.4ZM19.432 22.752L18.4347 22.6787L18.3558 23.752H19.432V22.752ZM32.32 22.752V23.752H33.2541L33.3177 22.82L32.32 22.752ZM32.752 16.56L31.7565 16.4652L31.7554 16.477L31.7545 16.4888L32.752 16.56ZM33.184 11.016L32.1877 10.9306L32.1864 10.9448L32.1856 10.9589L33.184 11.016ZM33.472 6.696L32.4749 6.6193L32.4735 6.63765L32.4728 6.65603L33.472 6.696ZM44.632 4.752L43.8541 5.38034L43.8541 5.38034L44.632 4.752ZM46 12.6L45.0027 12.5261L45.0014 12.5445L45.0007 12.563L46 12.6ZM45.712 17.496L46.7093 17.569L46.7093 17.569L45.712 17.496ZM45.208 24.12L44.2111 24.0418L44.2103 24.051L44.2098 24.0601L45.208 24.12ZM44.704 31.536L43.7068 31.4607L43.7061 31.4701L43.7056 31.4795L44.704 31.536ZM44.2 39.024L43.2031 38.9458L43.2023 38.955L43.2018 38.9641L44.2 39.024ZM43.768 45.576L44.7653 45.649L44.7653 45.649L43.768 45.576ZM43.408 50.544L44.4053 50.6179L44.4055 50.6152L43.408 50.544ZM43.192 52.92L42.2056 52.7556L42.2023 52.7757L42.1997 52.796L43.192 52.92ZM42.904 53.784L43.6111 54.4911L43.6614 54.4409L43.704 54.384L42.904 53.784ZM38.08 53C35.4763 53 33.8695 52.4798 32.9957 51.6788L31.6443 53.1532C33.0745 54.4642 35.3077 55 38.08 55V53ZM32.9957 51.6788C32.1014 50.859 31.592 49.6454 31.592 47.88H29.592C29.592 50.0506 30.2346 51.861 31.6443 53.1532L32.9957 51.6788ZM31.592 47.88C31.592 46.864 31.6853 45.0248 31.8775 42.3352L29.8825 42.1928C29.6907 44.8792 29.592 46.784 29.592 47.88H31.592ZM31.8775 42.3352C32.0695 39.6472 32.2855 36.6232 32.5255 33.2632L30.5305 33.1208C30.2905 36.4808 30.0745 39.5048 29.8825 42.1928L31.8775 42.3352ZM31.528 32.192H18.712V34.192H31.528V32.192ZM17.7147 33.1192L16.2747 52.8472L18.2693 52.9928L19.7093 33.2648L17.7147 33.1192ZM16.2797 52.796C16.2618 52.9395 16.2377 53.0405 16.2153 53.1078C16.1927 53.1755 16.177 53.1933 16.184 53.184L17.784 54.384C18.0778 53.9922 18.2066 53.5057 18.2643 53.044L16.2797 52.796ZM16.2769 53.0769C16.3295 53.0243 16.377 52.9965 16.4018 52.9841C16.4259 52.972 16.4341 52.9717 16.4175 52.9759C16.4013 52.9799 16.3693 52.9863 16.3175 52.9915C16.2662 52.9966 16.2009 53 16.12 53V55C16.3843 55 16.6522 54.9787 16.9025 54.9161C17.1468 54.8551 17.4452 54.737 17.6911 54.4911L16.2769 53.0769ZM16.12 53H12.16V55H16.12V53ZM12.16 53C9.55631 53 7.94953 52.4798 7.07572 51.6788L5.72428 53.1532C7.15447 54.4642 9.38769 55 12.16 55V53ZM7.07572 51.6788C6.18139 50.859 5.672 49.6454 5.672 47.88H3.672C3.672 50.0506 4.31461 51.861 5.72428 53.1532L7.07572 51.6788ZM5.672 47.88C5.672 46.9544 5.74206 45.3503 5.88605 43.0464L3.88995 42.9216C3.74594 45.2257 3.672 46.8856 3.672 47.88H5.672ZM5.88613 43.0451C6.02965 40.701 6.22115 38.0436 6.46076 35.0724L4.46724 34.9116C4.22685 37.8924 4.03435 40.563 3.88987 42.9229L5.88613 43.0451ZM6.46076 35.0724C6.701 32.0934 6.94121 28.9467 7.18139 25.6323L5.18662 25.4877C4.94679 28.7973 4.707 31.9386 4.46724 34.9116L6.46076 35.0724ZM7.18139 25.6323C7.42119 22.323 7.66095 19.2062 7.90066 16.2817L5.90734 16.1183C5.66706 19.0498 5.42681 22.173 5.18662 25.4877L7.18139 25.6323ZM7.90066 16.2817C8.14097 13.3498 8.33342 10.7761 8.47788 8.56108L6.48212 8.43092C6.33858 10.6319 6.14703 13.1942 5.90734 16.1183L7.90066 16.2817ZM8.47788 8.56108C8.62169 6.35602 8.696 4.81312 8.696 3.96H6.696C6.696 4.73887 6.62631 6.21998 6.48212 8.43092L8.47788 8.56108ZM8.696 3.96C8.696 3.86614 8.70883 3.8264 8.71021 3.82251C8.7106 3.82144 8.70808 3.82872 8.70027 3.84093C8.69227 3.85343 8.68132 3.86699 8.66794 3.87953C8.63892 3.90674 8.62104 3.90861 8.64227 3.90198C8.66757 3.89407 8.73099 3.88 8.848 3.88V1.88C8.32534 1.88 7.74724 2.00123 7.30006 2.42046C6.84074 2.85107 6.696 3.42874 6.696 3.96H8.696ZM8.848 3.88H12.808V1.88H8.848V3.88ZM12.808 3.88C15.6678 3.88 17.2256 4.50317 17.9341 5.38034L19.4899 4.12366C18.1824 2.50483 15.8042 1.88 12.808 1.88V3.88ZM17.9341 5.38034C18.7399 6.3781 19.224 7.9621 19.224 10.296H21.224C21.224 7.73389 20.7001 5.6219 19.4899 4.12366L17.9341 5.38034ZM19.224 10.296C19.224 10.6408 19.1551 11.9674 19.0099 14.3389L21.0061 14.4611C21.1489 12.1286 21.224 10.7192 21.224 10.296H19.224ZM19.0099 14.3376C18.8662 16.6368 18.6745 19.4169 18.4347 22.6787L20.4293 22.8253C20.6695 19.559 20.8618 16.7712 21.0061 14.4624L19.0099 14.3376ZM19.432 23.752H32.32V21.752H19.432V23.752ZM33.3177 22.82C33.4616 20.709 33.6055 18.6461 33.7495 16.6312L31.7545 16.4888C31.6105 18.5059 31.4664 20.571 31.3223 22.684L33.3177 22.82ZM33.7475 16.6548C33.9405 14.6287 34.0855 12.7679 34.1824 11.073L32.1856 10.9589C32.0905 12.6241 31.9475 14.4593 31.7565 16.4652L33.7475 16.6548ZM34.1803 11.1014C34.3252 9.41179 34.4224 7.9558 34.4712 6.73597L32.4728 6.65603C32.4256 7.8362 32.3308 9.26021 32.1877 10.9306L34.1803 11.1014ZM34.4691 6.7727C34.5653 5.52155 34.616 4.57703 34.616 3.96H32.616C32.616 4.49496 32.5707 5.37444 32.4749 6.6193L34.4691 6.7727ZM34.616 3.96C34.616 3.86614 34.6288 3.8264 34.6302 3.82251C34.6306 3.82144 34.6281 3.82872 34.6203 3.84093C34.6123 3.85343 34.6013 3.86699 34.5879 3.87953C34.5589 3.90674 34.541 3.90861 34.5623 3.90198C34.5876 3.89407 34.651 3.88 34.768 3.88V1.88C34.2453 1.88 33.6672 2.00123 33.2201 2.42046C32.7607 2.85107 32.616 3.42874 32.616 3.96H34.616ZM34.768 3.88H38.728V1.88H34.768V3.88ZM38.728 3.88C41.5878 3.88 43.1456 4.50317 43.8541 5.38034L45.4099 4.12366C44.1024 2.50483 41.7243 1.88 38.728 1.88V3.88ZM43.8541 5.38034C44.6599 6.3781 45.144 7.9621 45.144 10.296H47.144C47.144 7.73389 46.6201 5.6219 45.4099 4.12366L43.8541 5.38034ZM45.144 10.296C45.144 10.4891 45.1003 11.2092 45.0027 12.5261L46.9973 12.6739C47.0917 11.3988 47.144 10.5829 47.144 10.296H45.144ZM45.0007 12.563C44.9533 13.8425 44.8582 15.4615 44.7147 17.423L46.7093 17.569C46.8538 15.5945 46.9507 13.9495 46.9993 12.637L45.0007 12.563ZM44.7147 17.423C44.5708 19.3889 44.403 21.5951 44.2111 24.0418L46.2049 24.1982C46.397 21.7489 46.5652 19.5391 46.7093 17.569L44.7147 17.423ZM44.2098 24.0601C44.0661 26.4547 43.8985 28.9216 43.7068 31.4607L45.7012 31.6113C45.8935 29.0624 46.0619 26.5853 46.2062 24.1799L44.2098 24.0601ZM43.7056 31.4795C43.562 34.0165 43.3945 36.5053 43.2031 38.9458L45.1969 39.1022C45.3895 36.6467 45.558 34.1435 45.7024 31.5925L43.7056 31.4795ZM43.2018 38.9641C43.058 41.3606 42.9143 43.5402 42.7707 45.503L44.7653 45.649C44.9097 43.6758 45.054 41.4874 45.1982 39.0839L43.2018 38.9641ZM42.7707 45.503C42.6266 47.4714 42.5066 49.128 42.4105 50.4728L44.4055 50.6152C44.5014 49.272 44.6214 47.6166 44.7653 45.649L42.7707 45.503ZM42.4107 50.4701C42.3132 51.7864 42.2443 52.5236 42.2056 52.7556L44.1784 53.0844C44.2357 52.7404 44.3108 51.8936 44.4053 50.6179L42.4107 50.4701ZM42.1997 52.796C42.1818 52.9395 42.1577 53.0405 42.1353 53.1078C42.1127 53.1755 42.097 53.1933 42.104 53.184L43.704 54.384C43.9978 53.9922 44.1266 53.5057 44.1843 53.044L42.1997 52.796ZM42.1969 53.0769C42.2495 53.0243 42.297 52.9965 42.3218 52.9841C42.3459 52.972 42.3541 52.9717 42.3375 52.9759C42.3213 52.9799 42.2893 52.9863 42.2375 52.9915C42.1862 52.9966 42.1209 53 42.04 53V55C42.3043 55 42.5722 54.9787 42.8225 54.9161C43.0668 54.8551 43.3652 54.737 43.6111 54.4911L42.1969 53.0769ZM42.04 53H38.08V55H42.04V53ZM54.9156 34.992L55.4484 35.8382L55.4484 35.8382L54.9156 34.992ZM72.1236 31.032L72.1489 32.0317L73.0389 32.0091L73.1195 31.1225L72.1236 31.032ZM72.1956 29.736L71.2033 29.612L71.1956 29.6737V29.736H72.1956ZM71.4036 24.696L70.5581 25.23L70.5581 25.23L71.4036 24.696ZM65.3556 23.76L65.7747 24.668L65.7747 24.668L65.3556 23.76ZM63.8436 24.984L64.6245 25.6087L64.6388 25.5908L64.6524 25.5722L63.8436 24.984ZM62.9076 26.784L61.9589 26.4678L61.9589 26.4678L62.9076 26.784ZM62.2596 29.16L61.2834 28.9431L61.2834 28.9431L62.2596 29.16ZM61.6116 30.024L61.8863 30.9855L61.9473 30.9681L62.0055 30.9431L61.6116 30.024ZM53.6916 20.376L52.8101 19.9038L52.8035 19.9162L52.7972 19.9288L53.6916 20.376ZM56.7876 16.92L57.3689 17.7337L57.3741 17.7299L56.7876 16.92ZM61.9716 14.544L61.7028 13.5808L61.7028 13.5808L61.9716 14.544ZM80.7636 16.992L80.0866 17.7279L80.0866 17.7279L80.7636 16.992ZM84.1476 29.232L83.1529 29.1291L83.1513 29.1449L83.1502 29.1608L84.1476 29.232ZM83.7156 33.552L82.7233 33.428L82.7216 33.4418L82.7203 33.4557L83.7156 33.552ZM83.2836 37.8L82.2893 37.6935L82.2874 37.7111L82.2862 37.7288L83.2836 37.8ZM83.7876 43.2L83.0137 43.8332L83.0286 43.8515L83.0443 43.869L83.7876 43.2ZM85.2276 44.208L84.8859 45.1478L84.8986 45.1524L84.9114 45.1567L85.2276 44.208ZM86.7396 44.64L86.9566 43.6638L86.9566 43.6638L86.7396 44.64ZM86.9556 48.6L85.988 48.3476L85.988 48.3476L86.9556 48.6ZM85.5156 51.624L84.7106 51.0308L84.7002 51.0449L84.6903 51.0593L85.5156 51.624ZM82.8516 53.856L82.4044 52.9616L82.3967 52.9654L82.3891 52.9694L82.8516 53.856ZM73.5636 53.064L72.8717 53.786L72.8717 53.786L73.5636 53.064ZM71.2596 48.456L72.2411 48.2645L71.7842 45.9227L70.4349 47.8905L71.2596 48.456ZM66.7236 52.848L66.1689 52.0159L66.1589 52.0227L66.7236 52.848ZM55.4196 54.216L55.1596 55.1817L55.1687 55.184L55.4196 54.216ZM52.1076 52.56L51.4635 53.3249L51.4731 53.333L51.4829 53.3409L52.1076 52.56ZM49.8756 49.608L48.9547 49.9976L48.9639 50.0194L48.9741 50.0407L49.8756 49.608ZM71.4756 36.936L72.4733 37.0048L72.547 35.936H71.4756V36.936ZM67.8036 37.224L67.9616 38.2114L67.9616 38.2114L67.8036 37.224ZM64.5636 38.16L64.9517 39.0816L64.9629 39.0769L64.974 39.0719L64.5636 38.16ZM62.3316 39.744L61.5724 39.0932L61.5724 39.0932L62.3316 39.744ZM62.4756 44.496L61.9349 45.3372L61.9479 45.3455L61.9611 45.3535L62.4756 44.496ZM67.0836 44.64L66.6828 43.7238L66.6828 43.7238L67.0836 44.64ZM69.0996 43.128L68.3439 42.4731L68.3404 42.4772L69.0996 43.128ZM50.0836 45.144C50.0836 41.1931 51.829 38.1172 55.4484 35.8382L54.3828 34.1458C50.2263 36.7628 48.0836 40.4549 48.0836 45.144H50.0836ZM55.4484 35.8382C59.115 33.5297 64.6403 32.2218 72.1489 32.0317L72.0983 30.0323C64.439 30.2262 58.4923 31.5583 54.3828 34.1458L55.4484 35.8382ZM73.1195 31.1225C73.1689 30.5795 73.1956 30.1143 73.1956 29.736H71.1956C71.1956 30.0297 71.1744 30.4285 71.1277 30.9415L73.1195 31.1225ZM73.1879 29.86C73.2425 29.4231 73.2676 28.9237 73.2676 28.368H71.2676C71.2676 28.8683 71.2447 29.2808 71.2033 29.612L73.1879 29.86ZM73.2676 28.368C73.2676 26.7193 72.9602 25.288 72.2491 24.162L70.5581 25.23C70.999 25.928 71.2676 26.9447 71.2676 28.368H73.2676ZM72.2491 24.162C71.3905 22.8026 69.7301 22.328 67.8036 22.328V24.328C69.5251 24.328 70.2647 24.7654 70.5581 25.23L72.2491 24.162ZM67.8036 22.328C66.713 22.328 65.7385 22.4819 64.9366 22.852L65.7747 24.668C66.2207 24.4621 66.8783 24.328 67.8036 24.328V22.328ZM64.9366 22.852C64.166 23.2077 63.5247 23.7224 63.0349 24.3958L64.6524 25.5722C64.9306 25.1896 65.2973 24.8883 65.7747 24.668L64.9366 22.852ZM63.0628 24.3593C62.5901 24.9502 62.2278 25.6612 61.9589 26.4678L63.8563 27.1002C64.0674 26.4668 64.3292 25.9778 64.6245 25.6087L63.0628 24.3593ZM61.9589 26.4678C61.7065 27.2252 61.4817 28.0509 61.2834 28.9431L63.2358 29.3769C63.4215 28.5411 63.6288 27.7828 63.8563 27.1002L61.9589 26.4678ZM61.2834 28.9431C61.2594 29.0514 61.2311 29.0927 61.2256 29.1C61.2229 29.1036 61.2227 29.1031 61.2248 29.1015C61.2268 29.0999 61.2256 29.1015 61.2177 29.1049L62.0055 30.9431C62.7013 30.645 63.0866 30.0483 63.2358 29.3769L61.2834 28.9431ZM61.3369 29.0625C61.1421 29.1181 60.7313 29.168 60.0276 29.168V31.168C60.764 31.168 61.4091 31.1219 61.8863 30.9855L61.3369 29.0625ZM60.0276 29.168C57.6768 29.168 56.0963 28.7193 55.1221 27.9839C54.2009 27.2884 53.6836 26.2304 53.6836 24.624H51.6836C51.6836 26.7136 52.3904 28.4276 53.9171 29.5801C55.3909 30.6927 57.4824 31.168 60.0276 31.168V29.168ZM53.6836 24.624C53.6836 23.2928 53.9828 22.0298 54.5861 20.8232L52.7972 19.9288C52.0565 21.4102 51.6836 22.9792 51.6836 24.624H53.6836ZM54.5731 20.8482C55.2147 19.6506 56.1392 18.612 57.3689 17.7337L56.2064 16.1063C54.748 17.148 53.6086 18.4134 52.8101 19.9038L54.5731 20.8482ZM57.3741 17.7299C58.6497 16.8062 60.2635 16.0589 62.2404 15.5072L61.7028 13.5808C59.5518 14.1811 57.7095 15.0178 56.2011 16.1101L57.3741 17.7299ZM62.2404 15.5072C64.1967 14.9613 66.5027 14.68 69.1716 14.68V12.68C66.3685 12.68 63.8746 12.9747 61.7028 13.5808L62.2404 15.5072ZM69.1716 14.68C74.3986 14.68 77.9578 15.7694 80.0866 17.7279L81.4407 16.2561C78.7695 13.7986 74.6007 12.68 69.1716 12.68V14.68ZM80.0866 17.7279C82.2337 19.7033 83.3636 22.5287 83.3636 26.352H85.3636C85.3636 22.1113 84.0935 18.6967 81.4407 16.2561L80.0866 17.7279ZM83.3636 26.352C83.3636 26.8215 83.2973 27.7333 83.1529 29.1291L85.1423 29.3349C85.2859 27.9467 85.3636 26.9385 85.3636 26.352H83.3636ZM83.1502 29.1608C83.0556 30.4848 82.9135 31.907 82.7233 33.428L84.7079 33.676C84.9018 32.125 85.0477 30.6672 85.1451 29.3032L83.1502 29.1608ZM82.7203 33.4557C82.5766 34.9406 82.4329 36.3532 82.2893 37.6935L84.2779 37.9065C84.4223 36.5588 84.5667 35.1394 84.711 33.6483L82.7203 33.4557ZM82.2862 37.7288C82.1903 39.0712 82.1396 40.04 82.1396 40.608H84.1396C84.1396 40.12 84.185 39.2168 84.2811 37.8712L82.2862 37.7288ZM82.1396 40.608C82.1396 41.8815 82.3599 43.0342 83.0137 43.8332L84.5616 42.5668C84.3514 42.3098 84.1396 41.7345 84.1396 40.608H82.1396ZM83.0443 43.869C83.5695 44.4524 84.1822 44.8919 84.8859 45.1478L85.5694 43.2682C85.217 43.1401 84.8698 42.9076 84.5309 42.531L83.0443 43.869ZM84.9114 45.1567C85.509 45.3559 86.0474 45.5106 86.5227 45.6162L86.9566 43.6638C86.5678 43.5774 86.0983 43.4441 85.5439 43.2593L84.9114 45.1567ZM86.5227 45.6162C86.6091 45.6354 86.5567 45.6436 86.4823 45.561C86.4449 45.5194 86.4178 45.4715 86.4021 45.4261C86.3873 45.3833 86.3876 45.3576 86.3876 45.36H88.3876C88.3876 44.9704 88.2725 44.5603 87.9689 44.223C87.6786 43.9004 87.3021 43.7406 86.9566 43.6638L86.5227 45.6162ZM86.3876 45.36C86.3876 46.3243 86.2562 47.3194 85.988 48.3476L87.9232 48.8524C88.231 47.6726 88.3876 46.5077 88.3876 45.36H86.3876ZM85.988 48.3476C85.7318 49.3296 85.3067 50.2218 84.7106 51.0308L86.3207 52.2172C87.0686 51.2022 87.6034 50.0784 87.9232 48.8524L85.988 48.3476ZM84.6903 51.0593C84.1771 51.8094 83.4297 52.4489 82.4044 52.9616L83.2988 54.7504C84.5775 54.1111 85.6062 53.2626 86.3409 52.1887L84.6903 51.0593ZM82.3891 52.9694C81.4653 53.4514 80.2668 53.72 78.7476 53.72V55.72C80.4924 55.72 82.03 55.4126 83.3142 54.7426L82.3891 52.9694ZM78.7476 53.72C76.5874 53.72 75.1527 53.2018 74.2555 52.342L72.8717 53.786C74.2786 55.1342 76.2999 55.72 78.7476 55.72V53.72ZM74.2555 52.342C73.2868 51.4136 72.5958 50.0823 72.2411 48.2645L70.2781 48.6475C70.6914 50.7657 71.5365 52.5064 72.8717 53.786L74.2555 52.342ZM70.4349 47.8905C69.3623 49.4547 67.9458 50.8313 66.1689 52.0159L67.2783 53.6801C69.2454 52.3687 70.853 50.8173 72.0844 49.0215L70.4349 47.8905ZM66.1589 52.0227C64.55 53.1236 62.3665 53.72 59.5236 53.72V55.72C62.6328 55.72 65.2493 55.0684 67.2883 53.6733L66.1589 52.0227ZM59.5236 53.72C58.1619 53.72 56.8787 53.5612 55.6706 53.248L55.1687 55.184C56.5526 55.5428 58.0053 55.72 59.5236 55.72V53.72ZM55.6796 53.2504C54.5576 52.9483 53.5793 52.4567 52.7323 51.7791L51.4829 53.3409C52.556 54.1993 53.7856 54.8117 55.1597 55.1816L55.6796 53.2504ZM52.7518 51.7951C51.9601 51.1284 51.299 50.2625 50.7771 49.1753L48.9741 50.0407C49.6042 51.3535 50.4311 52.4556 51.4635 53.3249L52.7518 51.7951ZM50.7966 49.2184C50.333 48.1225 50.0836 46.7735 50.0836 45.144H48.0836C48.0836 46.9705 48.3623 48.5975 48.9547 49.9976L50.7966 49.2184ZM71.4756 35.936C70.1761 35.936 68.8993 36.036 67.6456 36.2366L67.9616 38.2114C69.108 38.028 70.2791 37.936 71.4756 37.936V35.936ZM67.6456 36.2366C66.3717 36.4404 65.2049 36.7748 64.1533 37.2481L64.974 39.0719C65.8423 38.6812 66.8356 38.3916 67.9616 38.2114L67.6456 36.2366ZM64.1756 37.2384C63.1376 37.6754 62.2608 38.29 61.5724 39.0932L63.0909 40.3948C63.5544 39.854 64.1657 39.4126 64.9517 39.0816L64.1756 37.2384ZM61.5724 39.0932C60.8274 39.9623 60.4676 41.0151 60.4676 42.192H62.4676C62.4676 41.4489 62.6838 40.8697 63.0909 40.3948L61.5724 39.0932ZM60.4676 42.192C60.4676 43.4932 60.8741 44.6553 61.9349 45.3372L63.0164 43.6548C62.7331 43.4727 62.4676 43.0988 62.4676 42.192H60.4676ZM61.9611 45.3535C62.8318 45.8759 63.7769 46.144 64.7796 46.144V44.144C64.1503 44.144 63.5594 43.9801 62.9901 43.6385L61.9611 45.3535ZM64.7796 46.144C65.6978 46.144 66.6017 45.9423 67.4844 45.5562L66.6828 43.7238C66.0295 44.0097 65.3975 44.144 64.7796 44.144V46.144ZM67.4844 45.5562C68.3981 45.1565 69.1905 44.5586 69.8589 43.7788L68.3404 42.4772C67.8567 43.0414 67.3052 43.4515 66.6828 43.7238L67.4844 45.5562ZM69.8553 43.7829C70.5563 42.9741 71.1361 42.0188 71.6028 40.9299L69.7645 40.1421C69.3671 41.0692 68.891 41.8419 68.3439 42.4731L69.8553 43.7829ZM71.6028 40.9299C72.0892 39.795 72.3715 38.4798 72.4733 37.0048L70.478 36.8672C70.3877 38.1762 70.1421 39.261 69.7645 40.1421L71.6028 40.9299ZM128.83 46.296L127.835 46.3919L129.815 46.4713L128.83 46.296ZM130.414 37.152L129.431 36.9731L129.429 36.9803L129.428 36.9876L130.414 37.152ZM131.566 30.312L130.581 30.1396L130.579 30.1516L130.577 30.1637L131.566 30.312ZM132.358 25.344L131.373 25.1741L131.37 25.1907L131.368 25.2074L132.358 25.344ZM132.934 21.672L131.949 21.5007L131.946 21.5187L131.944 21.5369L132.934 21.672ZM133.366 18.792L132.38 18.6276L132.376 18.6513L132.373 18.6752L133.366 18.792ZM133.798 16.128L132.815 15.9491L132.812 15.9606L132.811 15.972L133.798 16.128ZM134.518 14.904L133.964 14.0719L133.941 14.0873L133.918 14.104L134.518 14.904ZM139.486 14.616L139.4 15.6122L139.422 15.6142L139.445 15.6151L139.486 14.616ZM145.678 16.488L145.048 17.2641L145.074 17.2855L145.102 17.305L145.678 16.488ZM146.254 22.392L147.215 22.6708L147.217 22.6627L146.254 22.392ZM142.294 33.912L143.226 34.2764L143.228 34.2696L142.294 33.912ZM139.63 40.536L138.706 40.1542L138.702 40.1646L139.63 40.536ZM135.022 51.84L135.936 52.2461L135.944 52.2289L135.951 52.2114L135.022 51.84ZM133.87 53.568L133.27 52.768L133.244 52.7875L133.22 52.8087L133.87 53.568ZM122.35 52.128L121.613 52.8037L121.613 52.8037L122.35 52.128ZM121.126 50.184L120.19 50.5351L120.194 50.5453L120.198 50.5554L121.126 50.184ZM120.478 47.736L121.465 47.5716L121.462 47.5576L121.46 47.5436L120.478 47.736ZM117.526 23.256L118.523 23.1793L116.551 23.0344L117.526 23.256ZM116.662 27.504L115.68 27.3181L115.677 27.331L115.675 27.3439L116.662 27.504ZM115.654 33.264L114.671 33.0811L114.669 33.0922L114.667 33.1033L115.654 33.264ZM114.574 39.6L113.59 39.425L113.59 39.425L114.574 39.6ZM113.494 45.648L114.478 45.8292L114.479 45.8247L113.494 45.648ZM112.558 50.4L113.535 50.6169L113.536 50.6095L112.558 50.4ZM111.838 52.92L110.944 52.4728L110.944 52.4728L111.838 52.92ZM110.902 53.856L111.177 54.8175L111.216 54.8065L111.254 54.7923L110.902 53.856ZM101.11 53.496L100.704 54.4098L100.734 54.4231L100.765 54.4343L101.11 53.496ZM98.8064 52.056L98.1281 52.7908L98.1416 52.8033L98.1556 52.8153L98.8064 52.056ZM97.2224 50.112L96.328 50.5592L96.3451 50.5936L96.3649 50.6265L97.2224 50.112ZM96.3584 47.736L97.3318 47.507L97.3294 47.497L97.3269 47.4871L96.3584 47.736ZM90.3824 24.48L89.4117 24.7204L89.4138 24.7288L90.3824 24.48ZM89.0864 14.904L88.4724 14.1146L88.4724 14.1146L89.0864 14.904ZM96.0704 14.688L95.9424 15.6798L95.9582 15.6818L95.9741 15.6833L96.0704 14.688ZM99.7424 15.552L99.332 16.4639L99.3402 16.4676L99.3485 16.4711L99.7424 15.552ZM102.046 17.352L101.222 17.9185L101.222 17.9185L102.046 17.352ZM103.054 20.376L104.052 20.3048L104.05 20.283L104.048 20.2614L103.054 20.376ZM103.342 24.48L102.345 24.5496L102.345 24.5496L103.342 24.48ZM103.774 31.536L102.776 31.5905L102.776 31.6002L102.777 31.6099L103.774 31.536ZM104.278 39.456L103.28 39.5095L103.28 39.5184L103.281 39.5272L104.278 39.456ZM104.782 46.296L103.785 46.3727L105.764 46.486L104.782 46.296ZM106.15 39.168L105.173 38.9567L105.17 38.9694L105.168 38.9821L106.15 39.168ZM107.086 34.704L108.067 34.9001L108.067 34.9001L107.086 34.704ZM107.662 31.536L106.684 31.33L106.679 31.3549L106.675 31.38L107.662 31.536ZM108.31 28.296L109.292 28.4848L109.292 28.4848L108.31 28.296ZM109.102 23.616L108.118 23.4393L108.116 23.4516L108.114 23.4639L109.102 23.616ZM110.47 16.128L111.454 16.3095L111.455 16.301L111.457 16.2924L110.47 16.128ZM118.462 14.544L118.536 13.5467L118.536 13.5467L118.462 14.544ZM121.918 15.264L121.562 16.1985L121.582 16.206L121.602 16.2127L121.918 15.264ZM124.51 16.848L123.803 17.5551L123.815 17.5673L123.828 17.5791L124.51 16.848ZM126.022 19.656L125.05 19.8894L125.055 19.9102L125.061 19.9307L126.022 19.656ZM126.238 20.664L125.248 20.8054L125.258 20.873L125.277 20.9387L126.238 20.664ZM126.526 22.104L125.538 22.2561L125.538 22.2561L126.526 22.104ZM126.814 24.696L125.818 24.7826L125.82 24.804L125.823 24.8253L126.814 24.696ZM127.246 29.16L126.249 29.2367L126.25 29.2494L126.252 29.262L127.246 29.16ZM127.894 36.144L126.898 36.2299L127.894 36.144ZM129.815 46.4713C130.439 42.9649 130.968 39.9131 131.401 37.3164L129.428 36.9876C128.997 39.5749 128.469 42.6191 127.846 46.1207L129.815 46.4713ZM131.398 37.3309C131.879 34.6842 132.265 32.3936 132.555 30.4603L130.577 30.1637C130.291 32.0704 129.909 34.3397 129.431 36.9731L131.398 37.3309ZM132.551 30.4844C132.889 28.5567 133.155 26.8881 133.349 25.4806L131.368 25.2074C131.178 26.5839 130.916 28.2273 130.581 30.1396L132.551 30.4844ZM133.344 25.5139C133.585 24.1138 133.779 22.8778 133.925 21.8071L131.944 21.5369C131.802 22.5782 131.612 23.7902 131.373 25.1741L133.344 25.5139ZM133.92 21.8433C134.114 20.7273 134.261 19.7483 134.36 18.9088L132.373 18.6752C132.28 19.4677 132.139 20.4087 131.949 21.5007L133.92 21.8433ZM134.353 18.9564C134.497 18.0894 134.642 17.1986 134.786 16.284L132.811 15.972C132.667 16.8814 132.523 17.7666 132.38 18.6276L134.353 18.9564ZM134.782 16.3069C134.839 15.9953 134.96 15.8225 135.118 15.704L133.918 14.104C133.308 14.5615 132.95 15.2047 132.815 15.9491L134.782 16.3069ZM135.073 15.736C135.13 15.6978 135.287 15.6235 135.615 15.5639C135.933 15.5061 136.355 15.472 136.894 15.472V13.472C136.282 13.472 135.732 13.5099 135.257 13.5961C134.793 13.6805 134.338 13.8222 133.964 14.0719L135.073 15.736ZM136.894 15.472C137.476 15.472 138.306 15.5171 139.4 15.6122L139.573 13.6198C138.459 13.5229 137.561 13.472 136.894 13.472V15.472ZM139.445 15.6151C140.526 15.6602 141.584 15.8178 142.618 16.0876L143.123 14.1524C141.949 13.8462 140.75 13.6678 139.528 13.6169L139.445 15.6151ZM142.618 16.0876C143.605 16.345 144.406 16.743 145.048 17.2641L146.309 15.7119C145.414 14.985 144.344 14.471 143.123 14.1524L142.618 16.0876ZM145.102 17.305C145.635 17.6813 145.902 18.183 145.902 18.936H147.902C147.902 17.577 147.354 16.4467 146.255 15.671L145.102 17.305ZM145.902 18.936C145.902 19.5589 145.72 20.5999 145.292 22.1213L147.217 22.6627C147.653 21.1121 147.902 19.8491 147.902 18.936H145.902ZM145.294 22.1132C144.868 23.5823 144.321 25.2949 143.652 27.2529L145.545 27.8991C146.22 25.9211 146.777 24.1777 147.215 22.6708L145.294 22.1132ZM143.652 27.2529C142.985 29.2076 142.221 31.308 141.361 33.5544L143.228 34.2696C144.096 32.004 144.868 29.8804 145.545 27.8991L143.652 27.2529ZM141.363 33.5476C140.501 35.7497 139.616 37.952 138.706 40.1542L140.555 40.9178C141.469 38.704 142.359 36.4903 143.226 34.2764L141.363 33.5476ZM138.702 40.1646C137.839 42.3211 137.001 44.3812 136.187 46.345L138.034 47.111C138.852 45.1388 139.693 43.0709 140.559 40.9074L138.702 40.1646ZM136.187 46.345C135.37 48.3155 134.672 50.0236 134.094 51.4686L135.951 52.2114C136.525 50.7764 137.219 49.0765 138.034 47.111L136.187 46.345ZM134.109 51.4339C133.739 52.2659 133.44 52.6409 133.27 52.768L134.47 54.368C135.069 53.9191 135.538 53.1421 135.936 52.2461L134.109 51.4339ZM133.22 52.8087C133.22 52.8082 133.203 52.8231 133.154 52.8451C133.105 52.8672 133.031 52.8933 132.926 52.9176C132.711 52.9671 132.408 53 131.998 53V55C132.937 55 133.89 54.868 134.521 54.3273L133.22 52.8087ZM131.998 53H127.75V55H131.998V53ZM127.75 53C126.479 53 125.51 52.8397 124.801 52.564L124.076 54.428C125.095 54.8243 126.333 55 127.75 55V53ZM124.801 52.564C124.053 52.2733 123.494 51.8961 123.088 51.4523L121.613 52.8037C122.262 53.5119 123.095 54.0467 124.076 54.428L124.801 52.564ZM123.088 51.4523C122.641 50.9646 122.298 50.4196 122.055 49.8126L120.198 50.5554C120.531 51.3884 121.004 52.1394 121.613 52.8037L123.088 51.4523ZM122.063 49.8329C121.799 49.1293 121.599 48.3762 121.465 47.5716L119.492 47.9004C119.646 48.8238 119.878 49.7027 120.19 50.5351L122.063 49.8329ZM121.46 47.5436C120.986 45.1268 120.485 41.8636 119.958 37.7451L117.974 37.9989C118.504 42.1364 119.011 45.4492 119.497 47.9284L121.46 47.5436ZM119.958 37.7451C119.433 33.6384 118.955 28.784 118.523 23.1793L116.529 23.3327C116.962 28.96 117.444 33.8496 117.974 37.9989L119.958 37.7451ZM116.551 23.0344C116.307 24.1074 116.017 25.5369 115.68 27.3181L117.645 27.6899C117.98 25.9191 118.265 24.5166 118.502 23.4776L116.551 23.0344ZM115.675 27.3439C115.389 29.1112 115.054 31.0235 114.671 33.0811L116.638 33.4469C117.023 31.3765 117.36 29.4488 117.649 27.6641L115.675 27.3439ZM114.667 33.1033C114.332 35.1623 113.973 37.2695 113.59 39.425L115.559 39.775C115.944 37.6105 116.305 35.4937 116.641 33.4247L114.667 33.1033ZM113.59 39.425C113.206 41.5845 112.846 43.6 112.51 45.4713L114.479 45.8247C114.815 43.952 115.175 41.9355 115.559 39.775L113.59 39.425ZM112.511 45.4668C112.176 47.2844 111.866 48.8585 111.581 50.1905L113.536 50.6095C113.827 49.2535 114.141 47.6596 114.478 45.8292L112.511 45.4668ZM111.582 50.1831C111.289 51.5027 111.071 52.2181 110.944 52.4728L112.733 53.3672C112.989 52.8539 113.252 51.8893 113.535 50.6169L111.582 50.1831ZM110.944 52.4728C110.781 52.7987 110.633 52.8889 110.551 52.9197L111.254 54.7923C111.939 54.5351 112.416 54.0013 112.733 53.3672L110.944 52.4728ZM110.628 52.8945C110.429 52.9512 110.038 53 109.39 53V55C110.086 55 110.704 54.9528 111.177 54.8175L110.628 52.8945ZM109.39 53H104.35V55H109.39V53ZM104.35 53C103.188 53 102.231 52.8431 101.456 52.5577L100.765 54.4343C101.814 54.8209 103.016 55 104.35 55V53ZM101.517 52.5822C100.735 52.2349 100.051 51.8055 99.4572 51.2967L98.1556 52.8153C98.9061 53.4585 99.7577 53.9891 100.704 54.4098L101.517 52.5822ZM99.4847 51.3212C98.9298 50.809 98.4624 50.235 98.0799 49.5975L96.3649 50.6265C96.8464 51.429 97.435 52.151 98.1281 52.7908L99.4847 51.3212ZM98.1168 49.6648C97.7667 48.9645 97.5056 48.2456 97.3318 47.507L95.385 47.965C95.5952 48.8584 95.9101 49.7235 96.328 50.5592L98.1168 49.6648ZM97.3269 47.4871C94.6869 37.2151 92.6949 29.4631 91.3509 24.2312L89.4138 24.7288C90.7578 29.9609 92.7499 37.7129 95.3899 47.9849L97.3269 47.4871ZM91.353 24.2396C90.7054 21.6251 90.2209 19.6213 89.8988 18.2251C89.7375 17.5263 89.6183 16.9857 89.5399 16.5995C89.5006 16.4059 89.473 16.2581 89.4556 16.1521C89.4345 16.0232 89.4384 16.0122 89.4384 16.056H87.4384C87.4384 16.1958 87.4625 16.3565 87.4819 16.4751C87.505 16.6166 87.5382 16.7921 87.5799 16.9974C87.6635 17.4093 87.7873 17.9697 87.95 18.6749C88.2758 20.0867 88.7633 22.1029 89.4117 24.7204L91.353 24.2396ZM89.4384 16.056C89.4384 16.0129 89.4406 15.8954 89.7003 15.6933L88.4724 14.1146C87.8682 14.5846 87.4384 15.2351 87.4384 16.056H89.4384ZM89.7003 15.6934C89.9198 15.5227 90.2408 15.4 90.7424 15.4V13.4C89.9 13.4 89.117 13.6133 88.4724 14.1146L89.7003 15.6934ZM90.7424 15.4C92.7782 15.4 94.5092 15.4949 95.9424 15.6798L96.1983 13.6962C94.6555 13.4971 92.8345 13.4 90.7424 13.4V15.4ZM95.9741 15.6833C97.3953 15.8209 98.5036 16.0911 99.332 16.4639L100.153 14.6401C99.0612 14.1489 97.7215 13.8431 96.1667 13.6926L95.9741 15.6833ZM99.3485 16.4711C100.214 16.842 100.819 17.3322 101.222 17.9185L102.87 16.7855C102.218 15.8358 101.287 15.126 100.136 14.6329L99.3485 16.4711ZM101.222 17.9185C101.631 18.5134 101.929 19.3508 102.061 20.4906L104.048 20.2614C103.891 18.9052 103.517 17.7266 102.87 16.7855L101.222 17.9185ZM102.057 20.4472C102.105 21.1183 102.201 22.4854 102.345 24.5496L104.34 24.4104C104.196 22.3466 104.1 20.9777 104.052 20.3048L102.057 20.4472ZM102.345 24.5496C102.488 26.6074 102.632 28.9542 102.776 31.5905L104.773 31.4815C104.629 28.8378 104.484 26.4806 104.34 24.4104L102.345 24.5496ZM102.777 31.6099C102.969 34.1948 103.136 36.828 103.28 39.5095L105.277 39.4025C105.133 36.7079 104.964 34.0612 104.772 31.4621L102.777 31.6099ZM103.281 39.5272C103.473 42.2164 103.641 44.4983 103.785 46.3727L105.779 46.2193C105.636 44.3497 105.468 42.0716 105.276 39.3848L103.281 39.5272ZM105.764 46.486C106.34 43.5094 106.797 41.1319 107.133 39.3539L105.168 38.9821C104.832 40.7561 104.376 43.1306 103.801 46.106L105.764 46.486ZM107.128 39.3793C107.512 37.6004 107.826 36.107 108.067 34.9001L106.106 34.5079C105.867 35.701 105.556 37.1836 105.173 38.9567L107.128 39.3793ZM108.067 34.9001C108.309 33.6908 108.503 32.6209 108.65 31.692L106.675 31.38C106.533 32.2751 106.344 33.3172 106.106 34.5079L108.067 34.9001ZM108.641 31.742C108.834 30.8227 109.052 29.7367 109.292 28.4848L107.328 28.1071C107.089 29.3513 106.874 30.4253 106.684 31.33L108.641 31.742ZM109.292 28.4848C109.536 27.2203 109.802 25.647 110.091 23.7681L108.114 23.4639C107.827 25.329 107.565 26.8757 107.328 28.1072L109.292 28.4848ZM110.087 23.7927C110.422 21.923 110.878 19.4288 111.454 16.3095L109.487 15.9465C108.911 19.0672 108.455 21.565 108.118 23.4393L110.087 23.7927ZM111.457 16.2924C111.487 16.113 111.58 15.9243 111.981 15.743C112.428 15.5406 113.168 15.4 114.286 15.4V13.4C113.053 13.4 111.981 13.5474 111.156 13.921C110.284 14.3157 109.646 14.991 109.484 15.9636L111.457 16.2924ZM114.286 15.4C115.753 15.4 117.12 15.4473 118.389 15.5413L118.536 13.5467C117.212 13.4487 115.796 13.4 114.286 13.4V15.4ZM118.389 15.5413C119.607 15.6315 120.661 15.8552 121.562 16.1985L122.274 14.3295C121.16 13.9048 119.91 13.6485 118.536 13.5467L118.389 15.5413ZM121.602 16.2127C122.469 16.5018 123.198 16.9497 123.803 17.5551L125.217 16.1409C124.383 15.3063 123.383 14.6982 122.235 14.3153L121.602 16.2127ZM123.828 17.5791C124.372 18.0869 124.796 18.8319 125.05 19.8894L126.995 19.4226C126.673 18.0801 126.089 16.9531 125.193 16.1169L123.828 17.5791ZM125.061 19.9307C125.145 20.2243 125.207 20.5158 125.248 20.8054L127.228 20.5226C127.174 20.1402 127.092 19.7597 126.984 19.3813L125.061 19.9307ZM125.277 20.9387C125.356 21.2145 125.444 21.6462 125.538 22.2561L127.515 21.9519C127.417 21.3138 127.313 20.7854 127.2 20.3893L125.277 20.9387ZM125.538 22.2561C125.629 22.8481 125.723 23.6869 125.818 24.7826L127.811 24.6094C127.714 23.4971 127.616 22.6079 127.515 21.9519L125.538 22.2561ZM125.823 24.8253C125.963 25.904 126.106 27.3721 126.249 29.2367L128.243 29.0833C128.099 27.2039 127.953 25.696 127.806 24.5667L125.823 24.8253ZM126.252 29.262C126.443 31.1268 126.658 33.449 126.898 36.2299L128.891 36.0581C128.65 33.271 128.434 30.9372 128.241 29.058L126.252 29.262ZM126.898 36.2299C127.138 39.0183 127.451 42.4059 127.835 46.3919L129.826 46.2001C129.442 42.2181 129.13 38.8377 128.891 36.0581L126.898 36.2299ZM182.101 51.84L182.925 52.4065L182.925 52.4065L182.101 51.84ZM180.085 53.856L179.508 53.039L179.496 53.0473L179.485 53.056L180.085 53.856ZM173.389 53.424L172.82 54.2462L172.827 54.2512L172.834 54.2561L173.389 53.424ZM169.645 49.896L170.411 49.2534L170.411 49.2534L169.645 49.896ZM165.829 44.64L164.973 45.1574L164.98 45.1692L164.988 45.1808L165.829 44.64ZM162.013 37.944L162.893 37.4689L161.272 34.4681L161.016 37.8687L162.013 37.944ZM161.437 45.432L160.44 45.3538L160.44 45.3538L161.437 45.432ZM160.861 52.56L159.864 52.477L159.864 52.477L160.861 52.56ZM160.501 53.712L159.794 53.0049L159.794 53.0049L160.501 53.712ZM153.013 53.568L152.682 54.5119L152.704 54.5193L152.725 54.5258L153.013 53.568ZM149.629 50.04L148.65 50.246L148.657 50.2771L148.665 50.3076L149.629 50.04ZM149.413 45.144L148.416 45.0673L148.416 45.0673L149.413 45.144ZM149.989 37.944L148.994 37.842L148.993 37.8546L148.992 37.8673L149.989 37.944ZM150.637 30.528L151.634 30.6059L151.634 30.6059L150.637 30.528ZM151.429 19.224L150.432 19.1497L150.431 19.1596L151.429 19.224ZM152.509 2.808L153.507 2.86759L153.507 2.8605L153.508 2.85341L152.509 2.808ZM152.869 0.935997L152.162 0.228884L152.162 0.22889L152.869 0.935997ZM160.501 1.224L160.831 0.280139L160.831 0.280138L160.501 1.224ZM162.805 2.592L163.512 1.88489L163.512 1.88489L162.805 2.592ZM163.957 4.608L162.987 4.85053L162.994 4.87863L163.002 4.90627L163.957 4.608ZM164.173 9.432L163.176 9.34895L163.175 9.36873L163.174 9.38856L164.173 9.432ZM163.957 13.536L164.955 13.5965L164.955 13.5947L163.957 13.536ZM163.525 18.936L162.529 18.8412L162.528 18.853L162.527 18.8648L163.525 18.936ZM163.093 25.272L162.095 25.2069L161.933 27.6837L163.767 26.0107L163.093 25.272ZM174.613 14.76L173.948 14.0125L173.939 14.0213L174.613 14.76ZM175.765 13.968L175.414 13.0317L175.392 13.0398L175.371 13.0489L175.765 13.968ZM180.085 17.136L179.219 17.637L179.235 17.6644L179.253 17.6907L180.085 17.136ZM181.453 19.872L180.509 20.2023L180.519 20.2315L180.531 20.2601L181.453 19.872ZM178.645 26.496L178.082 25.6694L178.074 25.6751L178.645 26.496ZM168.565 31.68L168.173 30.7598L166.89 31.3061L167.819 32.3463L168.565 31.68ZM174.325 37.872L175.041 37.1741L175.041 37.1741L174.325 37.872ZM179.077 42.84L178.346 43.5223L178.352 43.5287L178.358 43.535L179.077 42.84ZM182.389 46.368L181.644 47.0348L181.644 47.0348L182.389 46.368ZM182.613 48.168C182.613 48.1589 182.609 48.2396 182.553 48.4655C182.501 48.6713 182.42 48.9447 182.304 49.2918L184.202 49.9242C184.326 49.5513 184.424 49.2247 184.493 48.9505C184.556 48.6964 184.613 48.4171 184.613 48.168H182.613ZM182.304 49.2918C182.1 49.9054 181.763 50.5658 181.277 51.2735L182.925 52.4065C183.494 51.5782 183.926 50.7506 184.202 49.9242L182.304 49.2918ZM181.277 51.2735C180.82 51.9372 180.234 52.5263 179.508 53.039L180.661 54.673C181.567 54.0337 182.325 53.2788 182.925 52.4065L181.277 51.2735ZM179.485 53.056C178.915 53.4833 178.198 53.72 177.277 53.72V55.72C178.563 55.72 179.718 55.3807 180.685 54.656L179.485 53.056ZM177.277 53.72C176.215 53.72 175.109 53.3689 173.944 52.5919L172.834 54.2561C174.261 55.2071 175.747 55.72 177.277 55.72V53.72ZM173.958 52.6018C172.801 51.8005 171.617 50.691 170.411 49.2534L168.879 50.5386C170.169 52.077 171.481 53.3195 172.82 54.2462L173.958 52.6018ZM170.411 49.2534C169.196 47.8042 167.948 46.0876 166.67 44.0992L164.988 45.1808C166.301 47.2244 167.598 49.0118 168.879 50.5386L170.411 49.2534ZM166.685 44.1226C165.446 42.0741 164.182 39.8564 162.893 37.4689L161.133 38.4191C162.436 40.8316 163.716 43.0779 164.973 45.1574L166.685 44.1226ZM161.016 37.8687C160.824 40.4118 160.632 42.9068 160.44 45.3538L162.434 45.5102C162.626 43.0612 162.818 40.5642 163.01 38.0193L161.016 37.8687ZM160.44 45.3538C160.248 47.8003 160.056 50.1747 159.864 52.477L161.857 52.643C162.05 50.3373 162.242 47.9597 162.434 45.5102L160.44 45.3538ZM159.864 52.477C159.844 52.7207 159.811 52.8827 159.78 52.9817C159.747 53.088 159.734 53.065 159.794 53.0049L161.208 54.4191C161.46 54.167 161.603 53.856 161.689 53.5783C161.778 53.2933 161.83 52.9753 161.857 52.643L159.864 52.477ZM159.794 53.0049C159.882 52.9163 159.935 52.9278 159.822 52.9546C159.72 52.9786 159.545 53 159.277 53V55C159.632 55 159.974 54.9734 160.28 54.9014C160.574 54.8322 160.927 54.6997 161.208 54.4191L159.794 53.0049ZM159.277 53H156.685V55H159.277V53ZM156.685 53C155.252 53 154.134 52.8602 153.3 52.6102L152.725 54.5258C153.812 54.8518 155.142 55 156.685 55V53ZM153.343 52.6241C152.493 52.3267 151.906 51.9476 151.518 51.5243L150.044 52.8757C150.712 53.6044 151.612 54.1373 152.682 54.5119L153.343 52.6241ZM151.518 51.5243C151.111 51.0806 150.796 50.5069 150.592 49.7724L148.665 50.3076C148.941 51.3011 149.394 52.1674 150.044 52.8757L151.518 51.5243ZM150.607 49.834C150.433 49.0034 150.341 48.0423 150.341 46.944H148.341C148.341 48.1497 148.441 49.2526 148.65 50.246L150.607 49.834ZM150.341 46.944C150.341 46.3957 150.364 45.8213 150.41 45.2207L148.416 45.0673C148.366 45.7147 148.341 46.3403 148.341 46.944H150.341ZM150.41 45.2207C150.458 44.5999 150.529 43.7144 150.625 42.563L148.632 42.397C148.536 43.5496 148.464 44.4401 148.416 45.0673L150.41 45.2207ZM150.625 42.563C150.722 41.408 150.842 39.8937 150.986 38.0207L148.992 37.8673C148.848 39.7383 148.728 41.248 148.632 42.397L150.625 42.563ZM150.984 38.046C151.177 36.1626 151.393 33.6816 151.634 30.6059L149.64 30.4501C149.4 33.5184 149.185 35.9814 148.994 37.842L150.984 38.046ZM151.634 30.6059C151.874 27.5279 152.139 23.7551 152.427 19.2884L150.431 19.1596C150.143 23.6209 149.879 27.3841 149.64 30.4501L151.634 30.6059ZM152.426 19.2983C152.763 14.7798 153.123 9.30262 153.507 2.86759L151.511 2.7484C151.127 9.17737 150.767 14.6442 150.432 19.1497L152.426 19.2983ZM153.508 2.85341C153.531 2.34648 153.57 1.98077 153.617 1.73684C153.64 1.61487 153.661 1.54709 153.672 1.51813C153.688 1.47678 153.67 1.54937 153.576 1.6431L152.162 0.22889C151.972 0.418619 151.866 0.641209 151.804 0.80386C151.737 0.978902 151.689 1.16912 151.653 1.35915C151.58 1.73922 151.535 2.21352 151.51 2.76259L153.508 2.85341ZM153.576 1.64311C153.488 1.73059 153.412 1.76249 153.4 1.76705C153.386 1.77312 153.397 1.76662 153.449 1.75687C153.555 1.73693 153.739 1.72 154.021 1.72V-0.280001C153.679 -0.280001 153.358 -0.260933 153.081 -0.208874C152.844 -0.164572 152.457 -0.0662345 152.162 0.228884L153.576 1.64311ZM154.021 1.72H156.829V-0.280001H154.021V1.72ZM156.829 1.72C158.252 1.72 159.354 1.88194 160.17 2.16786L160.831 0.280138C159.728 -0.105946 158.382 -0.280001 156.829 -0.280001V1.72ZM160.17 2.16786C161.023 2.46626 161.651 2.85236 162.098 3.2991L163.512 1.88489C162.807 1.17964 161.899 0.653736 160.831 0.280139L160.17 2.16786ZM162.098 3.2991C162.549 3.75085 162.84 4.26364 162.987 4.85053L164.927 4.36546C164.69 3.41636 164.212 2.58515 163.512 1.88489L162.098 3.2991ZM163.002 4.90627C163.212 5.57635 163.317 6.2677 163.317 6.984H165.317C165.317 6.06829 165.182 5.17565 164.911 4.30972L163.002 4.90627ZM163.317 6.984C163.317 7.41809 163.272 8.197 163.176 9.34895L165.169 9.51504C165.265 8.363 165.317 7.50991 165.317 6.984H163.317ZM163.174 9.38856C163.126 10.4857 163.054 11.8482 162.959 13.4773L164.955 13.5947C165.051 11.9598 165.124 10.5863 165.172 9.47544L163.174 9.38856ZM162.959 13.4755C162.864 15.0454 162.721 16.8337 162.529 18.8412L164.52 19.0308C164.713 17.0063 164.858 15.1946 164.955 13.5965L162.959 13.4755ZM162.527 18.8648C162.383 20.883 162.239 22.9971 162.095 25.2069L164.091 25.3371C164.235 23.1309 164.378 21.021 164.522 19.0072L162.527 18.8648ZM163.767 26.0107L175.287 15.4987L173.939 14.0213L162.419 24.5333L163.767 26.0107ZM175.277 15.5074C175.67 15.1584 175.962 14.9716 176.159 14.8871L175.371 13.0489C174.896 13.2524 174.42 13.5936 173.948 14.0126L175.277 15.5074ZM176.116 14.9043C176.285 14.841 176.415 14.8002 176.511 14.7761C176.614 14.7504 176.646 14.752 176.629 14.752V12.752C176.244 12.752 175.812 12.8824 175.414 13.0317L176.116 14.9043ZM176.629 14.752C176.732 14.752 177.058 14.8313 177.624 15.4405L179.09 14.0795C178.407 13.3447 177.582 12.752 176.629 12.752V14.752ZM177.624 15.4405C178.19 16.0504 178.723 16.7802 179.219 17.637L180.95 16.635C180.39 15.6678 179.771 14.8136 179.09 14.0795L177.624 15.4405ZM179.253 17.6907C179.783 18.4864 180.201 19.3232 180.509 20.2023L182.397 19.5416C182.032 18.5008 181.538 17.5136 180.917 16.5813L179.253 17.6907ZM180.531 20.2601C180.895 21.1248 181.029 21.7242 181.029 22.104H183.029C183.029 21.3318 182.778 20.4432 182.374 19.4839L180.531 20.2601ZM181.029 22.104C181.029 22.9511 180.309 24.1529 178.082 25.6694L179.208 27.3226C181.492 25.7671 183.029 24.0409 183.029 22.104H181.029ZM178.074 25.6751C175.95 27.1523 172.665 28.8486 168.173 30.7598L168.956 32.6002C173.489 30.6714 176.923 28.9117 179.216 27.3169L178.074 25.6751ZM167.819 32.3463C169.843 34.6114 171.773 36.6861 173.609 38.5699L175.041 37.1741C173.228 35.3139 171.318 33.2606 169.31 31.0137L167.819 32.3463ZM173.609 38.5699C175.429 40.4383 177.008 42.0889 178.346 43.5223L179.808 42.1577C178.458 40.7111 176.869 39.0497 175.041 37.1741L173.609 38.5699ZM178.358 43.535C179.746 44.9708 180.84 46.1364 181.644 47.0348L183.134 45.7012C182.306 44.7756 181.192 43.5892 179.796 42.145L178.358 43.535ZM181.644 47.0348C182.039 47.4769 182.312 47.8173 182.48 48.0643C182.564 48.1882 182.608 48.2683 182.628 48.311C182.655 48.37 182.613 48.3072 182.613 48.168H184.613C184.613 47.8848 184.52 47.639 184.445 47.476C184.363 47.2967 184.254 47.1158 184.134 46.9397C183.894 46.5867 183.555 46.1711 183.134 45.7012L181.644 47.0348ZM196.383 53.928L196.135 54.8968L196.141 54.8981L196.383 53.928ZM190.767 51.192L190.145 51.9752L190.156 51.9838L190.767 51.192ZM186.735 46.008L187.634 45.5688L187.634 45.5688L186.735 46.008ZM186.519 28.368L185.568 28.0595L185.564 28.0712L185.561 28.083L186.519 28.368ZM188.823 23.112L187.954 22.6184L187.949 22.6264L188.823 23.112ZM192.711 18.36L192.051 17.6088L192.051 17.6088L192.711 18.36ZM198.471 14.976L198.114 14.0421L198.114 14.0421L198.471 14.976ZM212.871 14.544L213.187 13.5953L213.187 13.5953L212.871 14.544ZM217.047 16.92L216.357 17.6434L216.366 17.6518L216.375 17.6599L217.047 16.92ZM218.703 30.096L217.843 29.5855L217.837 29.5955L217.832 29.6057L218.703 30.096ZM215.247 33.984L215.834 34.794L215.839 34.7904L215.247 33.984ZM210.567 36.36L210.251 35.4113L210.251 35.4113L210.567 36.36ZM205.455 37.728L205.624 38.7136L205.638 38.7113L205.651 38.7086L205.455 37.728ZM200.775 38.304L200.81 39.3034L200.826 39.3029L200.842 39.3018L200.775 38.304ZM197.535 38.376V37.376H196.535V38.376H197.535ZM197.895 41.112L196.928 41.3665L196.936 41.3977L196.947 41.4282L197.895 41.112ZM199.119 43.416L199.906 42.7982L199.906 42.7982L199.119 43.416ZM201.207 45.072L201.654 44.1776L201.654 44.1776L201.207 45.072ZM207.255 45.144L207.751 46.0122L207.761 46.007L207.77 46.0015L207.255 45.144ZM208.983 43.776L209.727 44.445L209.742 44.4275L209.757 44.4092L208.983 43.776ZM210.063 42.408L209.274 41.7941L209.269 41.801L209.263 41.808L210.063 42.408ZM212.583 41.976L212.341 42.9461L212.386 42.9573L212.431 42.9644L212.583 41.976ZM214.455 42.696L214.979 41.8443L214.979 41.8443L214.455 42.696ZM216.111 44.28L216.925 43.6988L216.925 43.6988L216.111 44.28ZM215.535 50.472L214.776 49.8212L214.776 49.8212L215.535 50.472ZM212.151 52.92L211.742 52.0074L211.73 52.013L212.151 52.92ZM207.615 54.288L207.446 53.3024L207.446 53.3024L207.615 54.288ZM201.351 24.192L201.976 24.9729L201.982 24.9681L201.351 24.192ZM199.479 26.424L198.614 25.923L198.604 25.9404L198.594 25.9583L199.479 26.424ZM198.327 29.448L197.36 29.1956L197.354 29.2155L197.35 29.2356L198.327 29.448ZM197.751 32.616L196.761 32.4746L196.596 33.6348L197.767 33.6159L197.751 32.616ZM204.951 31.104L204.495 30.2141L204.486 30.2191L204.951 31.104ZM206.823 24.408L206.023 25.008L206.035 25.0235L206.047 25.0386L206.823 24.408ZM202.719 53.72C200.692 53.72 198.661 53.4666 196.626 52.9579L196.141 54.8981C198.33 55.4454 200.523 55.72 202.719 55.72V53.72ZM196.631 52.9592C194.698 52.4648 192.95 51.6128 191.378 50.4002L190.156 51.9838C191.945 53.3632 193.94 54.3352 196.135 54.8968L196.631 52.9592ZM191.389 50.4089C189.89 49.2187 188.634 47.6155 187.634 45.5688L185.837 46.4472C186.948 48.7205 188.38 50.5733 190.145 51.9751L191.389 50.4089ZM187.634 45.5688C186.664 43.5854 186.151 41.0354 186.151 37.872H184.151C184.151 41.2366 184.695 44.1106 185.837 46.4472L187.634 45.5688ZM186.151 37.872C186.151 36.7218 186.244 35.3218 186.433 33.6655L184.446 33.4385C184.251 35.1422 184.151 36.6222 184.151 37.872H186.151ZM186.433 33.6655C186.618 32.0488 186.965 30.3782 187.478 28.653L185.561 28.083C185.018 29.9098 184.645 31.6952 184.446 33.4385L186.433 33.6655ZM187.47 28.6765C188.025 26.9654 188.767 25.2725 189.697 23.5976L187.949 22.6264C186.96 24.4075 186.165 26.2186 185.568 28.0595L187.47 28.6765ZM189.693 23.6056C190.644 21.9297 191.868 20.432 193.371 19.1112L192.051 17.6088C190.386 19.072 189.018 20.7423 187.954 22.6184L189.693 23.6056ZM193.371 19.1112C194.854 17.8081 196.668 16.7375 198.829 15.9099L198.114 14.0421C195.763 14.9425 193.736 16.1279 192.051 17.6088L193.371 19.1112ZM198.829 15.9099C200.943 15.1003 203.504 14.68 206.535 14.68V12.68C203.327 12.68 200.512 13.1237 198.114 14.0421L198.829 15.9099ZM206.535 14.68C208.961 14.68 210.959 14.9607 212.555 15.4927L213.187 13.5953C211.328 12.9753 209.102 12.68 206.535 12.68V14.68ZM212.555 15.4927C214.177 16.0333 215.43 16.7591 216.357 17.6434L217.738 16.1966C216.552 15.0649 215.022 14.2067 213.187 13.5953L212.555 15.4927ZM216.375 17.6599C217.316 18.5158 217.991 19.5105 218.414 20.6513L220.289 19.9567C219.752 18.5055 218.89 17.2442 217.72 16.1801L216.375 17.6599ZM218.414 20.6513C218.849 21.8279 219.071 23.1014 219.071 24.48H221.071C221.071 22.8826 220.813 21.3721 220.289 19.9567L218.414 20.6513ZM219.071 24.48C219.071 26.5505 218.644 28.2366 217.843 29.5855L219.563 30.6065C220.586 28.8834 221.071 26.8255 221.071 24.48H219.071ZM217.832 29.6057C217.038 31.0159 215.983 32.2047 214.656 33.1776L215.839 34.7904C217.392 33.6513 218.64 32.2481 219.575 30.5863L217.832 29.6057ZM214.661 33.1741C213.356 34.1188 211.888 34.8656 210.251 35.4113L210.883 37.3087C212.702 36.7024 214.354 35.8652 215.834 34.7939L214.661 33.1741ZM210.251 35.4113C208.56 35.975 206.896 36.42 205.259 36.7474L205.651 38.7086C207.374 38.364 209.119 37.897 210.883 37.3087L210.251 35.4113ZM205.286 36.7424C203.634 37.0256 202.109 37.2129 200.709 37.3062L200.842 39.3018C202.322 39.2031 203.916 39.0064 205.624 38.7136L205.286 36.7424ZM200.741 37.3046C199.353 37.3525 198.286 37.376 197.535 37.376V39.376C198.32 39.376 199.414 39.3515 200.81 39.3034L200.741 37.3046ZM196.535 38.376C196.535 39.3768 196.667 40.3743 196.928 41.3665L198.862 40.8575C198.643 40.0257 198.535 39.1992 198.535 38.376H196.535ZM196.947 41.4282C197.269 42.3941 197.729 43.2656 198.333 44.0338L199.906 42.7982C199.453 42.2224 199.098 41.5579 198.844 40.7958L196.947 41.4282ZM198.333 44.0338C198.963 44.8362 199.781 45.477 200.76 45.9664L201.654 44.1776C200.905 43.803 200.331 43.3398 199.906 42.7982L198.333 44.0338ZM200.76 45.9664C201.797 46.4851 203.016 46.72 204.375 46.72V44.72C203.239 44.72 202.345 44.5229 201.654 44.1776L200.76 45.9664ZM204.375 46.72C205.702 46.72 206.863 46.5201 207.751 46.0122L206.759 44.2758C206.304 44.5359 205.545 44.72 204.375 44.72V46.72ZM207.77 46.0015C208.551 45.5328 209.212 45.0171 209.727 44.445L208.24 43.107C207.891 43.4949 207.4 43.8912 206.741 44.2865L207.77 46.0015ZM209.757 44.4092C210.195 43.8745 210.564 43.4068 210.863 43.008L209.263 41.808C208.986 42.1772 208.636 42.6215 208.209 43.1428L209.757 44.4092ZM210.853 43.0219C211.007 42.8232 211.153 42.76 211.359 42.76V40.76C210.51 40.76 209.791 41.1288 209.274 41.7941L210.853 43.0219ZM211.359 42.76C211.462 42.76 211.762 42.8014 212.341 42.9461L212.826 41.0059C212.253 40.8626 211.736 40.76 211.359 40.76V42.76ZM212.431 42.9644C212.904 43.0371 213.403 43.2225 213.931 43.5477L214.979 41.8443C214.26 41.4015 213.511 41.1069 212.735 40.9876L212.431 42.9644ZM213.931 43.5477C214.428 43.8534 214.885 44.284 215.298 44.8612L216.925 43.6988C216.377 42.932 215.731 42.3066 214.979 41.8443L213.931 43.5477ZM215.298 44.8612C215.626 45.3217 215.831 45.9662 215.831 46.872H217.831C217.831 45.6658 217.556 44.5823 216.925 43.6988L215.298 44.8612ZM215.831 46.872C215.831 48.0379 215.477 49.0038 214.776 49.8212L216.295 51.1228C217.322 49.9242 217.831 48.4901 217.831 46.872H215.831ZM214.776 49.8212C214.021 50.7017 213.02 51.4348 211.742 52.0075L212.56 53.8325C214.067 53.1572 215.321 52.2583 216.295 51.1228L214.776 49.8212ZM211.73 52.013C210.477 52.5947 209.052 53.0271 207.446 53.3024L207.784 55.2736C209.539 54.9729 211.137 54.4933 212.572 53.827L211.73 52.013ZM207.446 53.3024C205.818 53.5815 204.243 53.72 202.719 53.72V55.72C204.364 55.72 206.053 55.5705 207.784 55.2736L207.446 53.3024ZM204.087 22.256C202.818 22.256 201.679 22.6369 200.721 23.4159L201.982 24.9681C202.559 24.4991 203.244 24.256 204.087 24.256V22.256ZM200.727 23.4111C199.897 24.0749 199.195 24.9187 198.614 25.923L200.345 26.925C200.819 26.1053 201.366 25.4611 201.976 24.9729L200.727 23.4111ZM198.594 25.9583C198.075 26.9447 197.665 28.0253 197.36 29.1956L199.295 29.7004C199.566 28.6627 199.923 27.7273 200.364 26.8897L198.594 25.9583ZM197.35 29.2356C197.106 30.3606 196.909 31.4404 196.761 32.4746L198.741 32.7574C198.881 31.7756 199.069 30.7434 199.304 29.6604L197.35 29.2356ZM197.767 33.6159C200.835 33.5664 203.406 33.0471 205.417 31.9889L204.486 30.2191C202.848 31.0809 200.619 31.5696 197.735 31.6161L197.767 33.6159ZM205.408 31.9938C206.453 31.4578 207.299 30.7762 207.883 29.9227C208.473 29.0603 208.759 28.0744 208.759 27H206.759C206.759 27.7016 206.578 28.2877 206.232 28.7933C205.88 29.3078 205.322 29.7901 204.495 30.2142L205.408 31.9938ZM208.759 27C208.759 25.8028 208.363 24.7177 207.599 23.7774L206.047 25.0386C206.531 25.6343 206.759 26.2772 206.759 27H208.759ZM207.623 23.808C206.804 22.7156 205.547 22.256 204.087 22.256V24.256C205.124 24.256 205.691 24.5644 206.023 25.008L207.623 23.808Z" fill="black" mask="url(#path-1-outside-1_2311_6)"/>
</g>
<defs>
<filter id="filter0_d_2311_6" x="0.671997" y="0.720001" width="223.399" height="62" filterUnits="userSpaceOnUse" color-interpolation-filters="sRGB">
<feFlood flood-opacity="0" result="BackgroundImageFix"/>
<feColorMatrix in="SourceAlpha" type="matrix" values="0 0 0 0 0 0 0 0 0 0 0 0 0 0 0 0 0 0 127 0" result="hardAlpha"/>
<feOffset dy="4"/>
<feGaussianBlur stdDeviation="2"/>
<feComposite in2="hardAlpha" operator="out"/>
<feColorMatrix type="matrix" values="0 0 0 0 0 0 0 0 0 0 0 0 0 0 0 0 0 0 0.25 0"/>
<feBlend mode="normal" in2="BackgroundImageFix" result="effect1_dropShadow_2311_6"/>
<feBlend mode="normal" in="SourceGraphic" in2="effect1_dropShadow_2311_6" result="shape"/>
</filter>
</defs>
</svg>
